<?xml version="1.0" encoding="UTF-8"?>
<svg width="1140px" height="811px" viewBox="0 0 1140 811" version="1.1" xmlns="http://www.w3.org/2000/svg" xmlns:xlink="http://www.w3.org/1999/xlink">
    <!-- Generator: Sketch 51.3 (57544) - http://www.bohemiancoding.com/sketch -->
    <title>home_bg</title>
    <desc>Created with Sketch.</desc>
    <defs>
        <linearGradient x1="50.0017132%" y1="99.9950446%" x2="50.0017132%" y2="0%" id="linearGradient-1">
            <stop stop-color="#808080" stop-opacity="0.25" offset="0%"></stop>
            <stop stop-color="#808080" stop-opacity="0.12" offset="54%"></stop>
            <stop stop-color="#808080" stop-opacity="0.1" offset="100%"></stop>
        </linearGradient>
    </defs>
    <g id="Page-1" stroke="none" stroke-width="1" fill="none" fill-rule="evenodd">
        <g id="home_bg" transform="translate(0.000000, -1.000000)">
            <ellipse id="Oval" fill="#5AD2A1" fill-rule="nonzero" opacity="0.1" cx="509" cy="690.93" rx="509" ry="120.5"></ellipse>
            <path d="M124.53,362.42 C124.53,362.42 171.94,409.83 145.18,480.21 C118.42,550.59 191.06,667.55 191.06,667.55 C191.06,667.55 190.28,667.44 188.84,667.18 C91.47,649.97 43.08,538.61 97.23,455.87 C117.36,425.11 133.84,389.03 124.53,362.42 Z" id="Shape" fill-opacity="0.5" fill="#5AD2A1" fill-rule="nonzero"></path>
            <path d="M124.53,362.42 C124.53,362.42 151.29,420.53 124.53,467.94 C97.77,515.35 119.94,648.41 191.06,667.53" id="Shape" stroke-opacity="0.2" stroke="#4AAD85" stroke-width="2"></path>
            <path d="M40.09,554.21 C40.09,554.21 94.19,545.59 99.09,594.08 C103.99,642.57 203.09,649.28 203.09,649.28 C203.09,649.28 202.44,649.72 201.23,650.52 C119.47,704.21 41.25,684.7 53.04,613.38 C57.42,586.86 57.07,560.21 40.09,554.21 Z" id="Shape" fill="#A7E1C9" fill-rule="nonzero"></path>
            <path d="M40.09,554.21 C40.09,554.21 94.19,545.59 99.09,594.08 C103.99,642.57 203.09,649.28 203.09,649.28 C203.09,649.28 202.44,649.72 201.23,650.52 C119.47,704.21 41.25,684.7 53.04,613.38 C57.42,586.86 57.07,560.21 40.09,554.21 Z" id="Shape" fill-opacity="0.5" fill="#A7E1C9" fill-rule="nonzero" opacity="0.2"></path>
            <path d="M40.09,554.21 C40.09,554.21 82.09,563.43 78.63,601.61 C75.17,639.79 140.99,685.61 203.14,649.28" id="Shape" stroke-opacity="0.2" stroke="#4AAD85" stroke-width="2"></path>
            <path d="M1138.43,361.84 C1131.48,395.9 1095.8,412.98 1075.81,438.39 C1038.14,486.28 1052.81,556.23 1076.71,612.25 C1084.71,631.01 1093.79,650.86 1090.4,670.97 C1086.27,695.57 1064.32,713.55 1041.27,723.09 C999.27,740.46 948.97,736.32 910.36,712.3 C877,691.55 853.1,657.79 819.17,637.98 C762.38,604.83 690.1,617.35 628.43,640.19 C584.81,656.34 537.11,677.36 493.76,660.47 C463.26,648.59 442.17,619.67 430.68,589.02 C425.14,574.22 421.11,558.2 410.52,546.47 C404.22,539.47 396,534.54 387.59,530.37 C310.71,492.25 213.59,512.67 138.96,470.37 C88.54,441.82 56.25,387.97 41.96,331.81 C27.67,275.65 29.33,216.81 32.96,158.93 C35.54,117.83 40.17,73.93 66.43,42.23 C94.21,8.7 141.84,-3.79 184.98,2.6 C228.12,8.99 267.13,31.71 301.5,58.48 C344.5,91.95 384.28,133.61 437.01,147.17 C472.92,156.4 510.69,151.35 547.73,149.6 C609.65,146.68 671.59,153.18 733.16,160.3 C763.16,163.77 793.26,167.41 823,172.69 C829.666667,173.87 836.333333,175.14 843,176.5 C846.333333,177.166667 849.666667,177.88 853,178.64 C855.6,179.21 858.19,179.81 860.78,180.42 C864.866667,181.38 868.94,182.38 873,183.42 C884.66,186.42 896.21,189.87 907.64,193.77 C947.38,207.34 979.24,231.97 1016.77,249.18 C1041.23,260.4 1067.9,263.5 1091.06,277.78 C1119.59,295.4 1145.74,326.02 1138.43,361.84 Z" id="Shape" fill="#5AD20A" fill-rule="nonzero" opacity="0.1"></path>
            <path d="M606.14,644.98 C606.14,644.98 647.24,641.72 659.07,655.86 C670.9,670 713.13,702.42 695.7,709.64 C678.27,716.86 584.7,688.03 584.7,688.03 L606.14,644.98 Z" id="Shape" fill="#FFB9B9" fill-rule="nonzero"></path>
            <path d="M437.17,152.77 C436.450116,143.055613 429.269079,135.048839 419.69,133.28 C413.43,132.28 406.44,134.05 401.06,130.68 C398.63,129.15 396.89,126.76 394.93,124.68 C387.25,116.47 375.72,112.68 364.48,112.35 C353.24,112.02 342.16,114.74 331.36,117.85 C309.8,124.06 287.02,133.17 275.55,152.45 C258.11,181.8 274.2,221.36 260.41,252.59 C254.41,266.23 242.97,277.37 239.25,291.81 C234.25,311.1 244.11,330.67 251.7,349.09 C258.508777,365.610628 263.680216,382.759441 267.14,400.29 C270.19,415.77 271.89,431.86 268.45,447.29 C266.94,454.04 264.45,460.91 265.79,467.69 C267.79,477.95 277.71,484.42 286.73,489.69 L289.08,491.07 C302.08,498.67 315.45,506.43 330.34,508.31 C339.59,509.47 349.34,508.19 357.34,503.46 C365.34,498.73 371.43,490.29 372.11,481 C372.87,470.49 367.02,460.65 365.76,450.18 C365.470838,448.602639 365.591349,446.97746 366.11,445.46 C366.94,443.46 368.87,442.17 370.65,440.93 C396.29,423.05 410.04,389.59 404.37,358.85 C400.51,337.91 388.51,317.09 394.32,296.6 C397.53,285.28 405.8,276.11 410.44,265.3 C415.342327,253.754515 415.952422,240.83611 412.16,228.88 C409.51,220.62 404.71,212.37 406.36,203.88 C409.27,188.8 429.36,183.99 436.95,170.63 C442.58,160.69 439.25,146.63 429.75,140.31" id="Shape" fill="#B3B2B2" fill-rule="nonzero"></path>
            <path d="M437.17,152.77 C436.450116,143.055613 429.269079,135.048839 419.69,133.28 C413.43,132.28 406.44,134.05 401.06,130.68 C398.63,129.15 396.89,126.76 394.93,124.68 C387.25,116.47 375.72,112.68 364.48,112.35 C353.24,112.02 342.16,114.74 331.36,117.85 C309.8,124.06 287.02,133.17 275.55,152.45 C258.11,181.8 274.2,221.36 260.41,252.59 C254.41,266.23 242.97,277.37 239.25,291.81 C234.25,311.1 244.11,330.67 251.7,349.09 C258.508777,365.610628 263.680216,382.759441 267.14,400.29 C270.19,415.77 271.89,431.86 268.45,447.29 C266.94,454.04 264.45,460.91 265.79,467.69 C267.79,477.95 277.71,484.42 286.73,489.69 L289.08,491.07 C302.08,498.67 315.45,506.43 330.34,508.31 C339.59,509.47 349.34,508.19 357.34,503.46 C365.34,498.73 371.43,490.29 372.11,481 C372.87,470.49 367.02,460.65 365.76,450.18 C365.470838,448.602639 365.591349,446.97746 366.11,445.46 C366.94,443.46 368.87,442.17 370.65,440.93 C396.29,423.05 410.04,389.59 404.37,358.85 C400.51,337.91 388.51,317.09 394.32,296.6 C397.53,285.28 405.8,276.11 410.44,265.3 C415.342327,253.754515 415.952422,240.83611 412.16,228.88 C409.51,220.62 404.71,212.37 406.36,203.88 C409.27,188.8 429.36,183.99 436.95,170.63 C442.58,160.69 439.25,146.63 429.75,140.31" id="Shape" fill="#000000" fill-rule="nonzero" opacity="0.1"></path>
            <polygon id="Shape" fill="#9B9EB5" fill-rule="nonzero" points="478.5 676.93 263.5 676.93 263.5 561.93 383.5 607.93 478.5 561.93"></polygon>
            <polygon id="Shape" fill="#C7C0C0" fill-rule="nonzero" opacity="0.1" points="478.5 676.93 263.5 676.93 263.5 561.93 383.5 607.93 478.5 561.93"></polygon>
            <path d="M452.5,687.98 C452.5,687.98 413.5,697.3 409.5,714.38 C405.5,731.46 432.5,729.91 432.5,729.91 C432.5,729.91 470.5,722.14 475.5,691.08 C480.5,660.02 452.5,687.98 452.5,687.98 Z" id="Shape" fill="#FBD0D0" fill-rule="nonzero"></path>
            <path d="M452.5,687.98 C452.5,687.98 413.5,697.3 409.5,714.38 C405.5,731.46 432.5,729.91 432.5,729.91 C432.5,729.91 470.5,722.14 475.5,691.08 C480.5,660.02 452.5,687.98 452.5,687.98 Z" id="Shape" fill="#000000" fill-rule="nonzero" opacity="0.1"></path>
            <path d="M347.77,740.04 C347.77,740.04 311,742.43 310.5,772.26 C310.43,776.26 348.8,777.42 394.35,752.93 C439.9,728.44 443,725.86 443,725.86 C443,725.86 425.4,697.5 413,693.64 C400.6,689.78 347.77,740.04 347.77,740.04 Z" id="Shape" fill="#C7C8D0" fill-rule="nonzero"></path>
            <path d="M132.5,625.92 C132.5,625.92 90.5,660.92 168.5,709.92 C246.5,758.92 321.5,749.92 321.5,749.92 C321.5,749.92 402.86,740.29 415.18,702.1 C427.5,663.91 354.5,631.92 354.5,631.92 C354.5,631.92 274.5,631.92 238.5,608.92 C202.5,585.92 132.5,625.92 132.5,625.92 Z" id="Shape" fill="#B2B7DE" fill-rule="nonzero"></path>
            <path d="M359.5,565.92 C359.5,565.92 395.5,586.92 444.5,565.92 C482.2,549.76 564.9,556.1 601.03,559.92 C617.97,561.69 632.48,573.36 637.11,589.75 C640.89,603.12 638.11,619.55 615.49,634.95 C565.49,668.95 530.49,678.95 517.49,692.95 C504.49,706.95 467.49,713.95 467.49,713.95 C467.49,713.95 420.49,706.95 420.49,696.95 C420.49,686.95 463.49,637.95 463.49,637.95 C463.49,637.95 400.49,695.95 335.49,617.95 C270.49,539.95 359.5,565.92 359.5,565.92 Z" id="Shape" fill="#B2B7DE" fill-rule="nonzero"></path>
            <path d="M341.5,424.92 L214.5,337.92 C214.5,337.92 275.42,296.61 280.65,259.69 C281.837966,252.49237 280.362611,245.108487 276.5,238.92 C251.5,198.92 364.5,238.92 364.5,238.92 C365.230062,249.335897 366.649842,259.691938 368.75,269.92 C373.66,294.27 384.02,326.7 405.5,342.92 C442.5,370.92 341.5,424.92 341.5,424.92 Z" id="Shape" fill="#FBD0D0" fill-rule="nonzero"></path>
            <path d="M368.75,269.88 C340.370816,286.385759 304.512048,282.23819 280.65,259.69 C281.837966,252.49237 280.362611,245.108487 276.5,238.92 C251.5,198.92 364.5,238.92 364.5,238.92 C365.231819,249.322488 366.651591,259.665109 368.75,269.88 Z" id="Shape" fill="#000000" fill-rule="nonzero" opacity="0.1"></path>
            <circle id="Oval" fill="#FBD0D0" fill-rule="nonzero" cx="331.5" cy="203.93" r="74"></circle>
            <path d="M377.5,301.92 C377.5,301.92 362.5,389.92 337.5,384.92 C312.5,379.92 234.5,291.92 234.5,291.92 C234.5,291.92 153.5,318.92 166.5,384.92 C179.5,450.92 192.5,506.92 165.5,527.92 C138.5,548.92 121.5,646.92 121.5,646.92 C121.5,646.92 207.5,610.92 252.5,624.92 C297.5,638.92 343.5,631.92 354.5,618.92 C365.5,605.92 381.5,577.92 381.5,577.92 C381.5,577.92 358.5,543.92 369.5,526.92 C380.5,509.92 394.5,508.92 402.5,460.92 C410.5,412.92 473.5,395.92 461.5,368.92 C449.5,341.92 426.5,301.92 377.5,301.92 Z" id="Shape" fill="#C2BBBB" fill-rule="nonzero" opacity="0.1"></path>
            <path d="M377.5,297.92 C377.5,297.92 362.5,385.92 337.5,380.92 C312.5,375.92 234.5,287.92 234.5,287.92 C234.5,287.92 153.5,314.92 166.5,380.92 C179.5,446.92 192.5,502.92 165.5,523.92 C138.5,544.92 121.5,642.92 121.5,642.92 C121.5,642.92 207.5,606.92 252.5,620.92 C297.5,634.92 343.5,627.92 354.5,614.92 C365.5,601.92 381.5,573.92 381.5,573.92 C381.5,573.92 358.5,539.92 369.5,522.92 C380.5,505.92 394.5,504.92 402.5,456.92 C410.5,408.92 473.5,391.92 461.5,364.92 C449.5,337.92 426.5,297.92 377.5,297.92 Z" id="Shape" fill="#E2E4F0" fill-rule="nonzero"></path>
            <path d="M437.5,658.92 C437.5,658.92 477.5,648.92 491.5,660.92 C505.5,672.92 552.5,697.92 536.5,707.92 C520.5,717.92 423.5,704.92 423.5,704.92 L437.5,658.92 Z" id="Shape" fill="#FBD0D0" fill-rule="nonzero"></path>
            <g id="Group" opacity="0.05" transform="translate(121.000000, 287.000000)" fill-rule="nonzero">
                <path d="M206.5,93.92 C208.837463,94.3610291 211.255262,94.0090934 213.37,92.92 C185.59,82.2 113.5,0.92 113.5,0.92 C113.5,0.92 110.66,1.87 106.12,3.84 C119.9,19.15 184.23,89.47 206.5,93.92 Z" id="Shape" fill="#000000"></path>
                <path d="M330.5,77.92 C358.08,67.31 279.5,121.92 271.5,169.92 C263.5,217.92 249.5,218.92 238.5,235.92 C227.5,252.92 250.5,286.92 250.5,286.92 C250.5,286.92 234.5,314.92 223.5,327.92 C217.2,335.37 199.41,340.83 176.91,341.52 C204.05,342.38 226.29,336.43 233.5,327.92 C244.5,314.92 260.5,286.92 260.5,286.92 C260.5,286.92 237.5,252.92 248.5,235.92 C259.5,218.92 273.5,217.92 281.5,169.92 C289.5,121.92 324,80.42 330.5,77.92 Z" id="Shape" fill="#676666"></path>
                <path d="M1.27,351.75 C0.76,354.42 0.5,355.93 0.5,355.93 C0.5,355.93 56.42,332.52 101.68,330.8 C66.75,329.35 21.61,344.21 1.27,351.75 Z" id="Shape" fill="#000000"></path>
            </g>
            <path d="M454.5,359.92 C454.5,359.92 463.5,360.92 472.5,407.92 C481.5,454.92 516.5,499.92 516.5,499.92 C530.333911,518.427775 541.135554,539.018407 548.5,560.92 C560.5,596.92 614,644.42 633,646.42 C633,646.42 596.5,682.92 600.5,692.92 C604.5,702.92 596.5,692.92 596.5,692.92 C596.5,692.92 546.5,673.92 535.5,642.92 C524.5,611.92 476.5,561.92 476.5,561.92 C476.5,561.92 412.5,437.92 409.5,417.92 C406.5,397.92 454.5,359.92 454.5,359.92 Z" id="Shape" fill="#E2E4F0" fill-rule="nonzero"></path>
            <path d="M179,528.42 C179,528.42 256,537.42 273,561.42 C290,585.42 368.75,547.48 368.75,547.48" id="Shape" fill="#B0AEAE" fill-rule="nonzero" opacity="0.1"></path>
            <path d="M254.5,391.92 C254.5,391.92 287.5,512.92 299.5,527.92 C311.5,542.92 404.5,665.92 448.5,657.92 C448.5,657.92 435.5,713.92 426.5,715.92 C426.5,715.92 335.5,625.92 304.5,626.92 C304.5,626.92 247.5,579.92 241.5,556.92 C235.5,533.92 187.5,458.92 187.5,458.92 C187.5,458.92 163.5,405.92 173.5,382.92 C183.5,359.92 236.5,369.92 254.5,391.92 Z" id="Shape" fill="#676666" fill-rule="nonzero" opacity="0.1"></path>
            <path d="M255.5,389.92 C255.5,389.92 288.5,510.92 300.5,525.92 C312.5,540.92 405.5,663.92 449.5,655.92 C449.5,655.92 436.5,711.92 427.5,713.92 C427.5,713.92 336.5,623.92 305.5,624.92 C305.5,624.92 248.5,577.92 242.5,554.92 C236.5,531.92 188.5,456.92 188.5,456.92 C188.5,456.92 164.5,403.92 174.5,380.92 C184.5,357.92 237.5,367.92 255.5,389.92 Z" id="Shape" fill="#E2E4F0" fill-rule="nonzero"></path>
            <path d="M385.17,133.77 C384.450116,124.055613 377.269079,116.048839 367.69,114.28 C361.43,113.28 354.44,115.05 349.06,111.68 C346.63,110.15 344.89,107.76 342.93,105.68 C335.25,97.47 323.72,93.68 312.48,93.35 C301.24,93.02 290.16,95.74 279.36,98.85 C257.8,105.06 235.02,114.17 223.55,133.45 C206.11,162.8 222.2,202.36 208.41,233.59 C202.41,247.23 190.97,258.37 187.25,272.81 C182.25,292.1 192.11,311.67 199.7,330.09 C206.508777,346.610628 211.680216,363.759441 215.14,381.29 C218.19,396.77 219.89,412.86 216.45,428.29 C214.94,435.04 212.45,441.91 213.79,448.69 C215.79,458.95 225.71,465.42 234.73,470.69 L237.08,472.07 C250.08,479.67 263.45,487.43 278.34,489.31 C287.59,490.47 297.34,489.19 305.34,484.46 C313.34,479.73 319.43,471.29 320.11,462 C320.87,451.49 315.02,441.65 313.76,431.18 C313.470838,429.602639 313.591349,427.97746 314.11,426.46 C314.94,424.46 316.87,423.17 318.65,421.93 C344.29,404.05 358.04,370.59 352.37,339.85 C348.51,318.91 336.51,298.09 342.32,277.6 C345.53,266.28 353.8,257.11 358.44,246.3 C363.342327,234.754515 363.952422,221.83611 360.16,209.88 C357.51,201.62 352.71,193.37 354.36,184.88 C357.27,169.8 377.36,164.99 384.95,151.63 C390.58,141.69 387.25,127.63 377.75,121.31" id="Shape" fill="#000000" fill-rule="nonzero" opacity="0.1"></path>
            <path d="M383.17,132.77 C382.450116,123.055613 375.269079,115.048839 365.69,113.28 C359.43,112.28 352.44,114.05 347.06,110.68 C344.63,109.15 342.89,106.76 340.93,104.68 C333.25,96.47 321.72,92.68 310.48,92.35 C299.24,92.02 288.16,94.74 277.36,97.85 C255.8,104.06 233.02,113.17 221.55,132.45 C204.11,161.8 220.2,201.36 206.41,232.59 C200.41,246.23 188.97,257.37 185.25,271.81 C180.25,291.1 190.11,310.67 197.7,329.09 C204.508777,345.610628 209.680216,362.759441 213.14,380.29 C216.19,395.77 217.89,411.86 214.45,427.29 C212.94,434.04 210.45,440.91 211.79,447.69 C213.79,457.95 223.71,464.42 232.73,469.69 L235.08,471.07 C248.08,478.67 261.45,486.43 276.34,488.31 C285.59,489.47 295.34,488.19 303.34,483.46 C311.34,478.73 317.43,470.29 318.11,461 C318.87,450.49 313.02,440.65 311.76,430.18 C311.470838,428.602639 311.591349,426.97746 312.11,425.46 C312.94,423.46 314.87,422.17 316.65,420.93 C342.29,403.05 356.04,369.59 350.37,338.85 C346.51,317.91 334.51,297.09 340.32,276.6 C343.53,265.28 351.8,256.11 356.44,245.3 C361.342327,233.754515 361.952422,220.83611 358.16,208.88 C355.51,200.62 350.71,192.37 352.36,183.88 C355.27,168.8 375.36,163.99 382.95,150.63 C388.58,140.69 385.25,126.63 375.75,120.31" id="Shape" fill="#B3B2B2" fill-rule="nonzero"></path>
            <path d="M451.2,768.21 C453.03277,766.715856 454.368405,764.700199 455.03,762.43 C455.53,760.13 454.55,757.38 452.35,756.54 C449.89,755.6 447.26,757.3 445.27,759.03 C443.28,760.76 440.99,762.72 438.38,762.35 C441.108729,759.87648 442.338783,756.152148 441.62,752.54 C441.507181,751.803976 441.196049,751.112571 440.72,750.54 C439.35,749.08 436.88,749.71 435.24,750.86 C430.04,754.52 428.59,761.58 428.56,767.94 C428.04,765.65 428.48,763.26 428.46,760.94 C428.44,758.62 427.8,755.94 425.82,754.72 C424.592191,754.060285 423.213325,753.732804 421.82,753.77 C419.48,753.68 416.88,753.92 415.28,755.63 C413.28,757.75 413.81,761.32 415.54,763.63 C417.27,765.94 419.89,767.43 422.31,769.05 C424.249532,770.203074 425.903936,771.778859 427.15,773.66 C427.296557,773.920888 427.417135,774.19554 427.51,774.48 L442.14,774.48 C445.429418,772.808946 448.477161,770.699747 451.2,768.21 Z" id="Shape" fill-opacity="0.5" fill="#5AD2A1" fill-rule="nonzero"></path>
            <rect id="Rectangle-path" fill="#6C63FF" fill-rule="nonzero" opacity="0.1" x="585" y="228.43" width="318" height="22"></rect>
            <rect id="Rectangle-path" fill="#6C63FF" fill-rule="nonzero" opacity="0.1" x="585" y="323.43" width="318" height="22"></rect>
            <rect id="Rectangle-path" fill="#6C63FF" fill-rule="nonzero" opacity="0.1" x="585" y="422.43" width="318" height="22"></rect>
            <rect id="Rectangle-path" fill="#6C63FF" fill-rule="nonzero" opacity="0.1" x="613" y="171.43" width="20" height="57"></rect>
            <rect id="Rectangle-path" fill="#6C63FF" fill-rule="nonzero" opacity="0.1" x="613" y="180.43" width="20" height="4"></rect>
            <rect id="Rectangle-path" fill="#6C63FF" fill-rule="nonzero" opacity="0.1" x="613" y="211.43" width="20" height="4"></rect>
            <rect id="Rectangle-path" fill="#6C63FF" fill-rule="nonzero" opacity="0.1" x="643" y="171.43" width="20" height="57"></rect>
            <rect id="Rectangle-path" fill="#6C63FF" fill-rule="nonzero" opacity="0.1" x="643" y="180.43" width="20" height="4"></rect>
            <rect id="Rectangle-path" fill="#6C63FF" fill-rule="nonzero" opacity="0.1" x="643" y="211.43" width="20" height="4"></rect>
            <rect id="Rectangle-path" fill="#6C63FF" fill-rule="nonzero" opacity="0.1" x="673" y="171.43" width="20" height="57"></rect>
            <rect id="Rectangle-path" fill="#6C63FF" fill-rule="nonzero" opacity="0.1" x="673" y="180.43" width="20" height="4"></rect>
            <rect id="Rectangle-path" fill="#6C63FF" fill-rule="nonzero" opacity="0.1" x="673" y="211.43" width="20" height="4"></rect>
            <rect id="Rectangle-path" fill="#6C63FF" fill-rule="nonzero" opacity="0.1" x="703" y="171.43" width="20" height="57"></rect>
            <rect id="Rectangle-path" fill="#6C63FF" fill-rule="nonzero" opacity="0.1" x="703" y="180.43" width="20" height="4"></rect>
            <rect id="Rectangle-path" fill="#6C63FF" fill-rule="nonzero" opacity="0.1" x="703" y="211.43" width="20" height="4"></rect>
            <rect id="Rectangle-path" fill="#6C63FF" fill-rule="nonzero" opacity="0.1" x="733" y="171.43" width="20" height="57"></rect>
            <rect id="Rectangle-path" fill="#6C63FF" fill-rule="nonzero" opacity="0.1" x="733" y="180.43" width="20" height="4"></rect>
            <rect id="Rectangle-path" fill="#6C63FF" fill-rule="nonzero" opacity="0.1" x="733" y="211.43" width="20" height="4"></rect>
            <rect id="Rectangle-path" fill="#6C63FF" fill-rule="nonzero" opacity="0.1" x="763" y="171.43" width="20" height="57"></rect>
            <rect id="Rectangle-path" fill="#6C63FF" fill-rule="nonzero" opacity="0.1" x="763" y="180.43" width="20" height="4"></rect>
            <rect id="Rectangle-path" fill="#6C63FF" fill-rule="nonzero" opacity="0.1" x="763" y="211.43" width="20" height="4"></rect>
            <rect id="Rectangle-path" fill="#6C63FF" fill-rule="nonzero" opacity="0.1" x="793" y="171.43" width="20" height="57"></rect>
            <rect id="Rectangle-path" fill="#6C63FF" fill-rule="nonzero" opacity="0.1" x="793" y="180.43" width="20" height="4"></rect>
            <rect id="Rectangle-path" fill="#6C63FF" fill-rule="nonzero" opacity="0.1" x="793" y="211.43" width="20" height="4"></rect>
            <rect id="Rectangle-path" fill="#6C63FF" fill-rule="nonzero" opacity="0.1" transform="translate(804.999480, 393.886146) rotate(-26.630000) translate(-804.999480, -393.886146) " x="794.99948" y="365.386146" width="20" height="57"></rect>
            <rect id="Rectangle-path" fill="#6C63FF" fill-rule="nonzero" opacity="0.1" transform="translate(797.160876, 378.239344) rotate(-26.630000) translate(-797.160876, -378.239344) " x="787.160876" y="376.239344" width="20" height="4"></rect>
            <rect id="Rectangle-path" fill="#6C63FF" fill-rule="nonzero" opacity="0.1" transform="translate(811.047796, 405.953982) rotate(-26.630000) translate(-811.047796, -405.953982) " x="801.047796" y="403.953982" width="20" height="4"></rect>
            <rect id="Rectangle-path" fill="#6C63FF" fill-rule="nonzero" opacity="0.1" x="613" y="267.43" width="20" height="57"></rect>
            <rect id="Rectangle-path" fill="#6C63FF" fill-rule="nonzero" opacity="0.1" x="613" y="276.43" width="20" height="4"></rect>
            <rect id="Rectangle-path" fill="#6C63FF" fill-rule="nonzero" opacity="0.1" x="613" y="307.43" width="20" height="4"></rect>
            <rect id="Rectangle-path" fill="#6C63FF" fill-rule="nonzero" opacity="0.1" x="643" y="267.43" width="20" height="57"></rect>
            <rect id="Rectangle-path" fill="#6C63FF" fill-rule="nonzero" opacity="0.1" x="643" y="276.43" width="20" height="4"></rect>
            <rect id="Rectangle-path" fill="#6C63FF" fill-rule="nonzero" opacity="0.1" x="643" y="307.43" width="20" height="4"></rect>
            <rect id="Rectangle-path" fill="#6C63FF" fill-rule="nonzero" opacity="0.1" x="673" y="267.43" width="20" height="57"></rect>
            <rect id="Rectangle-path" fill="#6C63FF" fill-rule="nonzero" opacity="0.1" x="673" y="276.43" width="20" height="4"></rect>
            <rect id="Rectangle-path" fill="#6C63FF" fill-rule="nonzero" opacity="0.1" x="673" y="307.43" width="20" height="4"></rect>
            <rect id="Rectangle-path" fill="#6C63FF" fill-rule="nonzero" opacity="0.1" x="798" y="267.43" width="20" height="57"></rect>
            <rect id="Rectangle-path" fill="#6C63FF" fill-rule="nonzero" opacity="0.1" x="798" y="276.43" width="20" height="4"></rect>
            <rect id="Rectangle-path" fill="#6C63FF" fill-rule="nonzero" opacity="0.1" x="798" y="307.43" width="20" height="4"></rect>
            <rect id="Rectangle-path" fill="#6C63FF" fill-rule="nonzero" opacity="0.1" x="828" y="267.43" width="20" height="57"></rect>
            <rect id="Rectangle-path" fill="#6C63FF" fill-rule="nonzero" opacity="0.1" x="828" y="276.43" width="20" height="4"></rect>
            <rect id="Rectangle-path" fill="#6C63FF" fill-rule="nonzero" opacity="0.1" x="828" y="307.43" width="20" height="4"></rect>
            <rect id="Rectangle-path" fill="#6C63FF" fill-rule="nonzero" opacity="0.1" x="858" y="267.43" width="20" height="57"></rect>
            <rect id="Rectangle-path" fill="#6C63FF" fill-rule="nonzero" opacity="0.1" x="858" y="276.43" width="20" height="4"></rect>
            <rect id="Rectangle-path" fill="#6C63FF" fill-rule="nonzero" opacity="0.1" x="858" y="307.43" width="20" height="4"></rect>
            <rect id="Rectangle-path" fill="#6C63FF" fill-rule="nonzero" opacity="0.1" x="613" y="365.43" width="20" height="57"></rect>
            <rect id="Rectangle-path" fill="#6C63FF" fill-rule="nonzero" opacity="0.1" x="613" y="374.43" width="20" height="4"></rect>
            <rect id="Rectangle-path" fill="#6C63FF" fill-rule="nonzero" opacity="0.1" x="613" y="405.43" width="20" height="4"></rect>
            <rect id="Rectangle-path" fill="#6C63FF" fill-rule="nonzero" opacity="0.1" x="643" y="365.43" width="20" height="57"></rect>
            <rect id="Rectangle-path" fill="#6C63FF" fill-rule="nonzero" opacity="0.1" x="643" y="374.43" width="20" height="4"></rect>
            <rect id="Rectangle-path" fill="#6C63FF" fill-rule="nonzero" opacity="0.1" x="643" y="405.43" width="20" height="4"></rect>
            <rect id="Rectangle-path" fill="#6C63FF" fill-rule="nonzero" opacity="0.1" x="673" y="365.43" width="20" height="57"></rect>
            <rect id="Rectangle-path" fill="#6C63FF" fill-rule="nonzero" opacity="0.1" x="673" y="374.43" width="20" height="4"></rect>
            <rect id="Rectangle-path" fill="#6C63FF" fill-rule="nonzero" opacity="0.1" x="673" y="405.43" width="20" height="4"></rect>
            <rect id="Rectangle-path" fill="#6C63FF" fill-rule="nonzero" opacity="0.1" x="703" y="365.43" width="20" height="57"></rect>
            <rect id="Rectangle-path" fill="#6C63FF" fill-rule="nonzero" opacity="0.1" x="703" y="374.43" width="20" height="4"></rect>
            <rect id="Rectangle-path" fill="#6C63FF" fill-rule="nonzero" opacity="0.1" x="703" y="405.43" width="20" height="4"></rect>
            <rect id="Rectangle-path" fill="#6C63FF" fill-rule="nonzero" opacity="0.1" x="733" y="365.43" width="20" height="57"></rect>
            <rect id="Rectangle-path" fill="#6C63FF" fill-rule="nonzero" opacity="0.1" x="733" y="374.43" width="20" height="4"></rect>
            <rect id="Rectangle-path" fill="#6C63FF" fill-rule="nonzero" opacity="0.1" x="733" y="405.43" width="20" height="4"></rect>
            <rect id="Rectangle-path" fill="#6C63FF" fill-rule="nonzero" opacity="0.1" x="763" y="365.43" width="20" height="57"></rect>
            <rect id="Rectangle-path" fill="#6C63FF" fill-rule="nonzero" opacity="0.1" x="763" y="374.43" width="20" height="4"></rect>
            <rect id="Rectangle-path" fill="#6C63FF" fill-rule="nonzero" opacity="0.1" x="763" y="405.43" width="20" height="4"></rect>
            <path d="M843,176.5 L843,228.42 L823,228.42 L823,172.69 C829.693333,173.87 836.36,175.14 843,176.5 Z" id="Shape" fill="#6C63FF" fill-rule="nonzero" opacity="0.1"></path>
            <rect id="Rectangle-path" fill="#6C63FF" fill-rule="nonzero" opacity="0.1" x="823" y="180.43" width="20" height="4"></rect>
            <rect id="Rectangle-path" fill="#6C63FF" fill-rule="nonzero" opacity="0.1" x="823" y="211.43" width="20" height="4"></rect>
            <path d="M873,183.44 L873,228.44 L853,228.44 L853,178.64 C855.6,179.21 858.19,179.81 860.78,180.42 C864.873333,181.38 868.946667,182.386667 873,183.44 Z" id="Shape" fill="#6C63FF" fill-rule="nonzero" opacity="0.1"></path>
            <path d="M873,183.44 L873,184.44 L853,184.44 L853,180.44 L860.78,180.44 C864.873333,181.386667 868.946667,182.386667 873,183.44 Z" id="Shape" fill="#6C63FF" fill-rule="nonzero" opacity="0.1"></path>
            <rect id="Rectangle-path" fill="#6C63FF" fill-rule="nonzero" opacity="0.1" x="853" y="211.43" width="20" height="4"></rect>
            <circle id="Oval" fill="#6C63FF" fill-rule="nonzero" opacity="0.1" cx="146.7" cy="162.75" r="37.33"></circle>
            <circle id="Oval" fill="#6C63FF" fill-rule="nonzero" opacity="0.1" cx="146.7" cy="162.75" r="31.68"></circle>
            <circle id="Oval" fill="#6C63FF" fill-rule="nonzero" opacity="0.1" cx="146.7" cy="162.75" r="2.26"></circle>
            <path d="M160.28,139 L147.82,160.8" id="Shape" stroke="#6C63FF" opacity="0.1"></path>
            <path d="M160.84,170.11 L148.74,163.74" id="Shape" stroke="#6C63FF" opacity="0.1"></path>
            <rect id="Rectangle-path" fill="#828390" fill-rule="nonzero" x="468.26" y="716.48" width="117.43" height="16.59" rx="6.5"></rect>
            <g id="Group" opacity="0.7" transform="translate(539.000000, 531.000000)" fill="url(#linearGradient-1)" fill-rule="nonzero">
                <rect id="Rectangle-path" x="0.73" y="0.49" width="291.85" height="201.8" rx="28.22"></rect>
            </g>
            <rect id="Rectangle-path" fill="#747582" fill-rule="nonzero" x="544.94" y="535.21" width="276.47" height="198.07" rx="26.84"></rect>
            <rect id="Rectangle-path" fill="#828390" fill-rule="nonzero" x="548.77" y="535.21" width="276.47" height="198.07" rx="26.84"></rect>
            <path d="M222.56,721.33 C222.56,721.33 206.68,715.95 199.04,729.94 C194.943396,737.649057 195.071649,746.917251 199.38,754.51 C204.38,763.58 214.74,775.36 234.38,774.31 C251,773.42 256.53,760.74 258.03,748.94 C259.199407,739.943357 255.605758,730.986013 248.542615,725.292234 C241.479473,719.598456 231.963482,717.987787 223.42,721.04 L222.56,721.33 Z" id="Shape" fill="#96E7C6" fill-rule="nonzero"></path>
            <path d="M202.74,755.77 C198.431649,748.177251 198.303396,738.909057 202.4,731.2 C210.04,717.2 225.92,722.59 225.92,722.59 L226.73,722.3 C232.784926,720.109269 239.439774,720.259056 245.39,722.72 C238.741047,718.76115 230.667838,717.990526 223.39,720.62 L222.58,720.91 C222.58,720.91 206.7,715.53 199.06,729.52 C194.963396,737.229057 195.091649,746.497251 199.4,754.09 C202.71,760.09 208.32,767.2 217.4,771.09 C211.203578,767.420956 206.132797,762.121886 202.74,755.77 Z" id="Shape" fill="#FFFFFF" fill-rule="nonzero" opacity="0.1"></path>
            <path d="M214.36,728.06 C214.36,728.06 220.25,732.69 234.54,728.06" id="Shape" fill="#000000" fill-rule="nonzero" opacity="0.2"></path>
            <path d="M213.1,694.42 C213.1,694.42 223.19,721.75 222.35,728.9 L230.35,728.06 C230.35,728.06 216.89,704.06 220.26,694.42 L213.1,694.42 Z" id="Shape" fill="#6ECEA7" fill-rule="nonzero"></path>
            <path d="M213.1,694.42 C213.1,694.42 223.19,721.75 222.35,728.9 L230.35,728.06 C230.35,728.06 216.89,704.06 220.26,694.42 L213.1,694.42 Z" id="Shape" fill="#000000" fill-rule="nonzero" opacity="0.2"></path>
            <path d="M254.29,696.71 C254.29,696.71 238.41,688.59 231.29,695.3 C224.17,702.01 223.09,719.16 223.09,719.16 C223.09,719.16 249,722.72 254.29,696.71 Z" id="Shape" fill="#96E7C6" fill-rule="nonzero"></path>
            <path d="M254.29,696.71 C254.29,696.71 238.41,688.59 231.29,695.3 C224.17,702.01 223.09,719.16 223.09,719.16 C223.09,719.16 249,722.72 254.29,696.71 Z" id="Shape" fill="#FFFFFF" fill-rule="nonzero" opacity="0.1"></path>
            <path d="M223.1,719.16 C223.1,719.16 227.27,699.25 254.29,696.71" id="Shape" stroke="#6ECEA7"></path>
            <g id="Group" opacity="0.1" transform="translate(723.000000, 292.000000)" fill="#6C63FF" fill-rule="nonzero">
                <path d="M10.39,11.7 C10.39,11.7 4.33,9.64 1.39,14.99 C-0.172504888,17.9334262 -0.123476591,21.4710064 1.52,24.37 C3.44,27.83 7.39,32.37 14.87,31.93 C21.22,31.59 23.33,26.75 23.87,22.24 C24.2909667,18.810277 22.9114544,15.4062487 20.22155,13.2372335 C17.5316455,11.0682183 13.9125551,10.4416031 10.65,11.58 L10.39,11.7 Z" id="Shape"></path>
                <path d="M2.84,24.86 C1.19652341,21.9610064 1.14749511,18.4234262 2.71,15.48 C5.63,10.14 11.71,12.19 11.71,12.19 L12.02,12.08 C14.3335371,11.242799 16.8763471,11.2998606 19.15,12.24 C16.6082154,10.7264647 13.5215646,10.4328475 10.74,11.44 L10.43,11.55 C10.43,11.55 4.37,9.49 1.43,14.84 C-0.132504888,17.7834262 -0.0834765913,21.3210064 1.56,24.22 C3.0627305,27.084938 5.47622654,29.36826 8.42,30.71 C6.05965862,29.3074341 4.12955148,27.2839347 2.84,24.86 Z" id="Shape"></path>
                <path d="M7.26,14.27 C7.26,14.27 9.51,16.04 14.97,14.27" id="Shape" opacity="0.2"></path>
                <path d="M6.77,1.42 C6.77,1.42 10.62,11.86 10.3,14.59 L13.35,14.27 C13.35,14.27 8.21,5.12 9.5,1.42 L6.77,1.42 Z" id="Shape"></path>
                <path d="M6.77,1.42 C6.77,1.42 10.62,11.86 10.3,14.59 L13.35,14.27 C13.35,14.27 8.21,5.12 9.5,1.42 L6.77,1.42 Z" id="Shape" opacity="0.2"></path>
                <path d="M22.51,2.3 C22.51,2.3 16.44,-0.8 13.73,1.76 C11.02,4.32 10.6,10.87 10.6,10.87 C10.6,10.87 20.49,12.21 22.51,2.3 Z" id="Shape"></path>
                <path d="M22.51,2.3 C22.51,2.3 16.44,-0.8 13.73,1.76 C11.02,4.32 10.6,10.87 10.6,10.87 C10.6,10.87 20.49,12.21 22.51,2.3 Z" id="Shape"></path>
                <path d="M10.59,10.87 C10.59,10.87 12.18,3.27 22.5,2.29" id="Shape"></path>
            </g>
            <g id="Group" opacity="0.1" transform="translate(851.000000, 391.000000)" fill="#6C63FF" fill-rule="nonzero">
                <path d="M10.39,11.7 C10.39,11.7 4.33,9.64 1.39,14.99 C-0.172504888,17.9334262 -0.123476591,21.4710064 1.52,24.37 C3.44,27.83 7.39,32.37 14.87,31.93 C21.22,31.59 23.33,26.75 23.87,22.24 C24.2909667,18.810277 22.9114544,15.4062487 20.22155,13.2372335 C17.5316455,11.0682183 13.9125551,10.4416031 10.65,11.58 L10.39,11.7 Z" id="Shape"></path>
                <path d="M2.84,24.86 C1.19652341,21.9610064 1.14749511,18.4234262 2.71,15.48 C5.63,10.14 11.71,12.19 11.71,12.19 L12.02,12.08 C14.3335371,11.242799 16.8763471,11.2998606 19.15,12.24 C16.6082154,10.7264647 13.5215646,10.4328475 10.74,11.44 L10.43,11.55 C10.43,11.55 4.37,9.49 1.43,14.84 C-0.132504888,17.7834262 -0.0834765913,21.3210064 1.56,24.22 C3.0627305,27.084938 5.47622654,29.36826 8.42,30.71 C6.05965862,29.3074341 4.12955148,27.2839347 2.84,24.86 Z" id="Shape"></path>
                <path d="M7.26,14.27 C7.26,14.27 9.51,16.04 14.97,14.27" id="Shape" opacity="0.2"></path>
                <path d="M6.77,1.42 C6.77,1.42 10.62,11.86 10.3,14.59 L13.35,14.27 C13.35,14.27 8.21,5.12 9.5,1.42 L6.77,1.42 Z" id="Shape"></path>
                <path d="M6.77,1.42 C6.77,1.42 10.62,11.86 10.3,14.59 L13.35,14.27 C13.35,14.27 8.21,5.12 9.5,1.42 L6.77,1.42 Z" id="Shape" opacity="0.2"></path>
                <path d="M22.51,2.3 C22.51,2.3 16.44,-0.8 13.73,1.76 C11.02,4.32 10.6,10.87 10.6,10.87 C10.6,10.87 20.49,12.21 22.51,2.3 Z" id="Shape"></path>
                <path d="M22.51,2.3 C22.51,2.3 16.44,-0.8 13.73,1.76 C11.02,4.32 10.6,10.87 10.6,10.87 C10.6,10.87 20.49,12.21 22.51,2.3 Z" id="Shape"></path>
                <path d="M10.59,10.87 C10.59,10.87 12.18,3.27 22.5,2.29" id="Shape"></path>
            </g>
            <g id="Group-2" transform="translate(686.000000, 620.000000)" fill="#E0E0E0" fill-rule="nonzero">
                <circle id="Oval" cx="9.5" cy="9.5" r="1.5"></circle>
                <circle id="Oval" cx="17.5" cy="9.5" r="1.5"></circle>
                <g id="Group">
                    <path d="M12.9207625,0.393939394 C6.00149837,0.393939394 0.391538256,6.03830305 0.391538256,13 C0.391538256,19.9632727 6.00149837,25.6060606 12.9207625,25.6060606 C19.8400265,25.6060606 25.4499867,19.9632727 25.4499867,13 C25.4499867,6.0390909 19.8400265,0.393939394 12.9207625,0.393939394 Z M18.5980672,13.6704849 L7.24345776,13.6704849 C5.08138349,13.6704849 3.32807518,11.9064242 3.32807518,9.7310909 C3.32807518,7.55575757 5.08138349,5.79169695 7.24345776,5.79169695 L18.5980672,5.79169695 C20.7601415,5.79169695 22.5134497,7.55575757 22.5134497,9.7310909 C22.5134497,11.9072121 20.7601415,13.6704849 18.5980672,13.6704849 Z" id="Shape"></path>
                    <path d="M12.9207625,26 C5.79633237,26 0,20.1681212 0,13 C0,5.83187881 5.79633237,0 12.9207625,0 C20.0451926,0 25.8415249,5.83187881 25.8415249,13 C25.8415249,20.1681212 20.0451926,26 12.9207625,26 Z M12.9207625,0.787878785 C6.22780752,0.787878785 0.783076515,6.266 0.783076515,13 C0.783076515,19.734 6.22780752,25.2121212 12.9207625,25.2121212 C19.6137174,25.2121212 25.0584484,19.734 25.0584484,13 C25.0584484,6.266 19.6137174,0.787878785 12.9207625,0.787878785 Z M18.5980672,14.0652121 L7.24345776,14.0652121 C4.86838668,14.0652121 2.93653693,12.1207273 2.93653693,9.73187881 C2.93653693,7.34303028 4.86838668,5.39854545 7.24345776,5.39854545 L18.5980672,5.39854545 C20.9731382,5.39854545 22.904988,7.34303028 22.904988,9.73187881 C22.904988,12.1207273 20.9731382,14.0652121 18.5980672,14.0652121 Z M7.24345776,6.18642424 C5.30064492,6.18642424 3.71961344,7.77715152 3.71961344,9.73187881 C3.71961344,11.686606 5.30064492,13.2773333 7.24345776,13.2773333 L18.5980672,13.2773333 C20.54088,13.2773333 22.1219115,11.686606 22.1219115,9.73187881 C22.1219115,7.77715152 20.54088,6.18642424 18.5980672,6.18642424 L7.24345776,6.18642424 Z" id="Shape"></path>
                </g>
                <path d="M5.54253498,0.92007006 C4.27642262,-0.306564205 2.2165727,-0.306941651 0.951174203,0.920447507 C0.337846278,1.51498673 0,2.30516844 0,3.14592781 C0,3.98675009 0.337846278,4.77686888 0.951174203,5.37109358 L3.66315959,8 C4.50297301,6.02891782 6.01757043,4.35381562 8,3.30237888 L5.54253498,0.92007006 Z" id="Shape"></path>
            </g>
        </g>
    </g>
</svg>